<svg width="19" height="19" viewBox="0 0 19 19" fill="none" xmlns="http://www.w3.org/2000/svg">
<path d="M1.8077 18.9384C1.30257 18.9384 0.875 18.7634 0.525 18.4134C0.175 18.0634 0 17.6358 0 17.1307V3.74615C0 3.24102 0.175 2.81345 0.525 2.46345C0.875 2.11345 1.30257 1.93845 1.8077 1.93845H10.4635L8.96348 3.43842H1.8077C1.73077 3.43842 1.66024 3.47047 1.59612 3.53457C1.53202 3.59869 1.49997 3.66922 1.49997 3.74615V17.1307C1.49997 17.2076 1.53202 17.2782 1.59612 17.3423C1.66024 17.4064 1.73077 17.4384 1.8077 17.4384H15.1923C15.2692 17.4384 15.3397 17.4064 15.4038 17.3423C15.4679 17.2782 15.5 17.2076 15.5 17.1307V9.91145L17 8.4115V17.1307C17 17.6358 16.825 18.0634 16.475 18.4134C16.125 18.7634 15.6974 18.9384 15.1923 18.9384H1.8077ZM6 12.9384V9.50575L15.0596 0.44615C15.2147 0.291017 15.3853 0.177875 15.5711 0.106725C15.757 0.0355746 15.9461 0 16.1385 0C16.3346 0 16.523 0.0355746 16.7038 0.106725C16.8846 0.177875 17.0493 0.287808 17.198 0.436525L18.4538 1.68845C18.5987 1.84357 18.7099 2.01472 18.7874 2.2019C18.865 2.38907 18.9038 2.5788 18.9038 2.7711C18.9038 2.96342 18.8708 3.14996 18.8048 3.33073C18.7387 3.51148 18.6281 3.67942 18.473 3.83455L9.38457 12.9384H6ZM7.49998 11.4384H8.74613L14.9789 5.2057L14.3558 4.58262L13.6885 3.94032L7.49998 10.1288V11.4384Z" fill="#253D3E"/>
</svg>
