<svg width="80" height="80" viewBox="0 0 80 80" fill="none" xmlns="http://www.w3.org/2000/svg">
<path d="M40.007 80C34.4747 80 29.2745 78.9502 24.4066 76.8505C19.5386 74.7509 15.3041 71.9014 11.7032 68.3021C8.1022 64.7027 5.25142 60.4701 3.15085 55.6042C1.05028 50.7385 0 45.5394 0 40.007C0 34.4747 1.05 29.2745 3.15001 24.4066C5.25001 19.5386 8.10002 15.3041 11.7 11.7032C15.3 8.1022 19.5334 5.25142 24.4001 3.15085C29.2667 1.05029 34.4666 0 40 0C44.4354 0 48.6319 0.666668 52.5897 2.00001C56.5475 3.33334 60.1782 5.193 63.4817 7.57897L58.9151 12.251C56.1945 10.3779 53.2474 8.92034 50.0739 7.87844C46.9004 6.83662 43.5425 6.3157 40 6.3157C30.6666 6.3157 22.7192 9.59641 16.1578 16.1578C9.59641 22.7193 6.3157 30.6666 6.3157 40C6.3157 49.3334 9.59641 57.2807 16.1578 63.8422C22.7192 70.4036 30.6666 73.6843 40 73.6843C49.3334 73.6843 57.2807 70.4036 63.8422 63.8422C70.4036 57.2807 73.6843 49.3334 73.6843 40C73.6843 38.5209 73.5871 37.0581 73.3928 35.6116C73.1984 34.1651 72.9069 32.7588 72.5183 31.3926L77.6194 26.251C78.3913 28.4157 78.981 30.6424 79.3886 32.9314C79.7962 35.2203 80 37.5765 80 40C80 45.5333 78.9502 50.7333 76.8505 55.5999C74.7509 60.4666 71.9014 64.7 68.3021 68.3C64.7027 71.9 60.4701 74.75 55.6042 76.85C50.7385 78.95 45.5394 80 40.007 80ZM34.0243 57.9109L17.5871 41.4737L22.0243 37.0365L34.0243 49.0365L75.5628 7.43329L80 11.8705L34.0243 57.9109Z" fill="#77DD77"/>
</svg>
