<svg width="20" height="20" viewBox="0 0 20 20" fill="none" xmlns="http://www.w3.org/2000/svg">
<path d="M14.1442 10.1923L10.1865 6.36343C9.70828 5.90189 9.30604 5.38814 8.97978 4.82218C8.65349 4.25619 8.49035 3.63983 8.49035 2.97308C8.49035 2.14723 8.77939 1.44525 9.35748 0.867151C9.93558 0.289051 10.6376 0 11.4634 0C12.0032 0 12.5016 0.130134 12.9586 0.390401C13.4157 0.650667 13.8108 0.982075 14.1442 1.38463C14.4775 0.982075 14.8727 0.650667 15.3298 0.390401C15.7868 0.130134 16.2852 0 16.8249 0C17.6508 0 18.3528 0.289051 18.9309 0.867151C19.509 1.44525 19.798 2.14723 19.798 2.97308C19.798 3.63983 19.6374 4.25619 19.3163 4.82218C18.9951 5.38814 18.5954 5.90189 18.1172 6.36343L14.1442 10.1923ZM14.1442 8.10385L17.0038 5.3327C17.3397 5.0032 17.6394 4.64486 17.9028 4.25768C18.1663 3.87051 18.298 3.44231 18.298 2.97308C18.298 2.56153 18.1554 2.21313 17.8701 1.92788C17.5849 1.64261 17.2365 1.49998 16.8249 1.49998C16.5083 1.49998 16.2185 1.58267 15.9557 1.74805C15.6929 1.91345 15.4608 2.12308 15.2595 2.37693L14.1442 3.73458L13.0288 2.37693C12.8275 2.12308 12.5955 1.91345 12.3327 1.74805C12.0698 1.58267 11.7801 1.49998 11.4634 1.49998C11.0519 1.49998 10.7035 1.64261 10.4182 1.92788C10.1329 2.21313 9.9903 2.56153 9.9903 2.97308C9.9903 3.44231 10.122 3.87051 10.3855 4.25768C10.649 4.64486 10.9487 5.0032 11.2846 5.3327L14.1442 8.10385ZM4.99993 16.0769L12.2577 18.1308L18.2269 16.2808C18.1756 16.0538 18.0698 15.8798 17.9095 15.7586C17.7492 15.6375 17.5678 15.5769 17.3654 15.5769H12.468C12.0316 15.5769 11.6609 15.5602 11.3557 15.5269C11.0506 15.4936 10.7371 15.4205 10.4154 15.3077L8.15765 14.5615L8.60188 13.0923L10.6269 13.7962C10.9294 13.8987 11.2788 13.9686 11.675 14.0058C12.0711 14.043 12.6346 14.0667 13.3654 14.077C13.3654 13.8295 13.3096 13.616 13.198 13.4366C13.0865 13.2571 12.9397 13.1359 12.7577 13.0731L6.95573 10.9423C6.93649 10.9359 6.91886 10.9311 6.90282 10.9279C6.88681 10.9247 6.86918 10.9231 6.84995 10.9231H4.99993V16.0769ZM0 19V9.42313H6.83862C6.94361 9.42313 7.04994 9.43466 7.15763 9.45773C7.26533 9.48081 7.36533 9.50773 7.45763 9.5385L13.2846 11.6847C13.7384 11.8526 14.1153 12.1497 14.4153 12.576C14.7153 13.0023 14.8653 13.5026 14.8653 14.077H17.3654C18.0833 14.077 18.6682 14.3087 19.1201 14.7721C19.572 15.2356 19.798 15.8372 19.798 16.5769V17.3846L12.3077 19.7115L4.99993 17.6269V19H0ZM1.49998 17.5H3.49998V10.9231H1.49998V17.5Z" fill="#1E4E40"/>
</svg>
