<svg width="12" height="13" viewBox="0 0 12 13" fill="none" xmlns="http://www.w3.org/2000/svg">
<path d="M8.57309 6.70399L6.17426 4.38326C5.8844 4.10351 5.64059 3.79212 5.44284 3.44907C5.24507 3.10602 5.14619 2.73242 5.14619 2.32829C5.14619 1.82773 5.32138 1.40224 5.67177 1.05184C6.02217 0.701445 6.44765 0.526245 6.94822 0.526245C7.27537 0.526245 7.57746 0.605122 7.85449 0.762875C8.13152 0.920629 8.37105 1.1215 8.57309 1.3655C8.77514 1.1215 9.01467 0.920629 9.2917 0.762875C9.56872 0.605122 9.87081 0.526245 10.198 0.526245C10.6985 0.526245 11.124 0.701445 11.4744 1.05184C11.8248 1.40224 12 1.82773 12 2.32829C12 2.73242 11.9027 3.10602 11.708 3.44907C11.5133 3.79212 11.2711 4.10351 10.9812 4.38326L8.57309 6.70399ZM8.57309 5.43817L10.3064 3.75851C10.51 3.55879 10.6916 3.34159 10.8513 3.10691C11.011 2.87224 11.0908 2.6127 11.0908 2.32829C11.0908 2.07884 11.0044 1.86767 10.8315 1.69477C10.6586 1.52187 10.4474 1.43541 10.198 1.43541C10.006 1.43541 9.8304 1.48553 9.6711 1.58578C9.51179 1.68603 9.37113 1.81309 9.24913 1.96695L8.57309 2.78985L7.89704 1.96695C7.77504 1.81309 7.63439 1.68603 7.47509 1.58578C7.31578 1.48553 7.14016 1.43541 6.94822 1.43541C6.69877 1.43541 6.48759 1.52187 6.3147 1.69477C6.14179 1.86767 6.05534 2.07884 6.05534 2.32829C6.05534 2.6127 6.13519 2.87224 6.29488 3.10691C6.45457 3.34159 6.63622 3.55879 6.83981 3.75851L8.57309 5.43817ZM3.03056 10.2708L7.42963 11.5157L11.0477 10.3944C11.0166 10.2568 10.9525 10.1513 10.8553 10.0779C10.7582 10.0045 10.6482 9.96774 10.5255 9.96774H7.55714C7.29263 9.96774 7.0679 9.95764 6.88295 9.93744C6.698 9.91723 6.50801 9.87294 6.31297 9.80456L4.94453 9.3523L5.21378 8.46179L6.44118 8.88841C6.62457 8.95057 6.83633 8.99293 7.07644 9.01547C7.31656 9.03799 7.65809 9.05237 8.10103 9.05859C8.10103 8.90861 8.06722 8.77922 7.99961 8.67043C7.93201 8.56164 7.84303 8.48821 7.73269 8.45012L4.21602 7.15863C4.20436 7.15474 4.19367 7.15182 4.18395 7.14988C4.17424 7.14793 4.16356 7.14696 4.1519 7.14696H3.03056V10.2708ZM0 12.0425V6.23781H4.14504C4.20867 6.23781 4.27312 6.2448 4.33839 6.25878C4.40367 6.27277 4.46428 6.28909 4.52023 6.30774L8.05206 7.60857C8.32713 7.71036 8.55559 7.89045 8.73743 8.14883C8.91926 8.4072 9.01018 8.71045 9.01018 9.05859H10.5255C10.9607 9.05859 11.3152 9.19904 11.5891 9.47995C11.863 9.76086 12 10.1255 12 10.5739V11.0634L7.45994 12.4738L3.03056 11.2103V12.0425H0ZM0.909168 11.1334H2.12141V7.14696H0.909168V11.1334Z" fill="#FFFEFD"/>
</svg>
