<svg width="30" height="30" viewBox="0 0 30 30" fill="none" xmlns="http://www.w3.org/2000/svg">
<path d="M21.4327 15.4444L15.4356 9.64253C14.711 8.94316 14.1015 8.16468 13.6071 7.30706C13.1127 6.44943 12.8655 5.51544 12.8655 4.50512C12.8655 3.2537 13.3035 2.19 14.1794 1.314C15.0554 0.438 16.1191 0 17.3705 0C18.1884 0 18.9437 0.197193 19.6362 0.591576C20.3288 0.985959 20.9276 1.48814 21.4327 2.09813C21.9378 1.48814 22.5367 0.985959 23.2292 0.591576C23.9218 0.197193 24.677 0 25.4949 0C26.7463 0 27.81 0.438 28.686 1.314C29.562 2.19 30 3.2537 30 4.50512C30 5.51544 29.7567 6.44943 29.27 7.30706C28.7834 8.16468 28.1777 8.94316 27.4531 9.64253L21.4327 15.4444ZM21.4327 12.2798L25.7659 8.08067C26.2749 7.58137 26.729 7.03837 27.1282 6.45167C27.5275 5.865 27.7271 5.21615 27.7271 4.50512C27.7271 3.88149 27.5109 3.35356 27.0787 2.92132C26.6464 2.48905 26.1185 2.27292 25.4949 2.27292C25.015 2.27292 24.576 2.39822 24.1777 2.64883C23.7795 2.89946 23.4278 3.21711 23.1228 3.60177L21.4327 5.65902L19.7426 3.60177C19.4376 3.21711 19.086 2.89946 18.6877 2.64883C18.2894 2.39822 17.8504 2.27292 17.3705 2.27292C16.7469 2.27292 16.219 2.48905 15.7867 2.92132C15.3545 3.35356 15.1383 3.88149 15.1383 4.50512C15.1383 5.21615 15.338 5.865 15.7372 6.45167C16.1364 7.03837 16.5905 7.58137 17.0995 8.08067L21.4327 12.2798ZM7.57641 24.3614L18.5741 27.4736L27.6193 24.6703C27.5416 24.3264 27.3813 24.0627 27.1383 23.8791C26.8954 23.6955 26.6206 23.6037 26.3138 23.6037H18.8929C18.2316 23.6037 17.6698 23.5785 17.2074 23.528C16.745 23.4775 16.27 23.3667 15.7824 23.1958L12.3613 22.0651L13.0345 19.8389L16.103 20.9054C16.5614 21.0608 17.0908 21.1667 17.6911 21.2231C18.2914 21.2794 19.1452 21.3153 20.2526 21.3309C20.2526 20.9559 20.1681 20.6324 19.999 20.3605C19.83 20.0885 19.6076 19.9049 19.3317 19.8097L10.54 16.581C10.5109 16.5712 10.4842 16.5639 10.4599 16.5591C10.4356 16.5542 10.4089 16.5518 10.3798 16.5518H7.57641V24.3614ZM0 28.7907V14.2789H10.3626C10.5217 14.2789 10.6828 14.2964 10.846 14.3313C11.0092 14.3663 11.1607 14.4071 11.3006 14.4537L20.1301 17.7058C20.8178 17.9603 21.389 18.4105 21.8436 19.0565C22.2982 19.7024 22.5255 20.4605 22.5255 21.3309H26.3138C27.4017 21.3309 28.288 21.682 28.9728 22.3843C29.6576 23.0865 30 23.9981 30 25.1191V26.3429L18.6498 29.8689L7.57641 26.7101V28.7907H0ZM2.27292 26.5178H5.30353V16.5518H2.27292V26.5178Z" fill="#FFFEFD"/>
</svg>
