<svg width="23" height="23" viewBox="0 0 23 23" fill="none" xmlns="http://www.w3.org/2000/svg">
<circle cx="11.5" cy="11.5" r="11" stroke="#253D3E"/>
<path d="M12.3687 9.818V17H10.6327V9.818H12.3687ZM12.6067 7.725C12.6067 7.87433 12.5763 8.01433 12.5157 8.145C12.455 8.27567 12.3733 8.39 12.2707 8.488C12.1727 8.586 12.056 8.66533 11.9207 8.726C11.7853 8.782 11.6407 8.81 11.4867 8.81C11.3373 8.81 11.195 8.782 11.0597 8.726C10.929 8.66533 10.8147 8.586 10.7167 8.488C10.6187 8.39 10.5393 8.27567 10.4787 8.145C10.4227 8.01433 10.3947 7.87433 10.3947 7.725C10.3947 7.571 10.4227 7.42633 10.4787 7.291C10.5393 7.15567 10.6187 7.039 10.7167 6.941C10.8147 6.843 10.929 6.766 11.0597 6.71C11.195 6.64933 11.3373 6.619 11.4867 6.619C11.6407 6.619 11.7853 6.64933 11.9207 6.71C12.056 6.766 12.1727 6.843 12.2707 6.941C12.3733 7.039 12.455 7.15567 12.5157 7.291C12.5763 7.42633 12.6067 7.571 12.6067 7.725Z" fill="#253D3E"/>
</svg>
