<svg width="83" height="80" viewBox="0 0 83 80" fill="none" xmlns="http://www.w3.org/2000/svg">
<path d="M51.9559 61.5007C54.0979 59.3917 52.9421 54.5476 49.4428 48.9517C50.7145 48.7531 51.9034 48.4497 52.8028 47.9848C56.0386 46.3145 58.2234 43.2703 59.8772 40.1214C61.6552 36.7435 62.8483 33.0303 65.1683 29.9545C65.56 29.4345 65.9517 28.9683 66.3421 28.5297C71.3476 29.1297 75.3434 30.2055 75.3434 30.2055C75.3434 30.2055 76.3724 27.5945 76.8703 26.3255C74.9931 25.6483 73 25.0952 70.9586 24.6883C72.189 23.989 72.9917 23.771 72.9917 23.771C72.9917 23.771 72.0276 21.1628 71.5448 19.8593C69.2248 20.84 67.3421 22.2869 65.7655 24.0193C59.8731 23.6897 53.9393 24.8635 49.2579 28.4938C45.7379 31.2248 43.36 35.011 41.1228 38.7986C39.0331 36.7531 36.8993 34.9407 34.8041 33.3821C35.2262 32.6883 35.6786 32.0648 36.1655 31.5835C39.1076 28.6869 42.989 26.8345 45.5352 23.52C50.8869 16.56 46.9724 5.64966 42.5697 0C41.7807 0.76 40.4759 1.86759 39.4938 2.74207C44.1738 7.53517 47.4469 15.9269 43.7793 22.1972C41.7297 25.7021 37.9421 27.9007 35.2938 30.9117C34.8359 31.4345 34.4262 32.0965 34.0552 32.8276C27.1297 27.8607 20.7738 25.8621 18.2552 28.3421C18 28.5931 17.8083 28.8924 17.6455 29.2166L17.6359 29.2069L17.5683 29.4041C17.4745 29.6179 17.389 29.84 17.331 30.0828L0 80L50.5683 62.32L50.5545 62.3062C51.0979 62.131 51.5765 61.8731 51.9559 61.5007ZM10.0593 73.5614L5.83862 71.5945L8.6869 63.3876L21.7503 69.4731L10.0593 73.5614ZM33.44 65.3862L11.5379 55.1807L14.3862 46.9752L30.7531 55.1903C20.9834 48.8317 17.2345 38.7669 17.2345 38.7669L18.2083 35.9628C19.9393 40.3421 23.7476 45.7959 28.9807 50.9434C34.2579 56.1379 39.851 59.9007 44.3214 61.5821L33.44 65.3862ZM41.8524 39.5379C44.1393 36.2593 46.4965 32.9503 49.7738 30.5959C52.8938 28.3531 57.9586 27.9434 62.76 28.2124C61.1379 31.0455 59.9393 34.189 58.8634 37.2083C57.5628 40.8634 55.8193 44.6538 52.4952 46.8952C51.5986 47.4993 50.3421 47.9407 49 48.2676C47.1559 45.4414 44.7365 42.4538 41.8524 39.5379Z" fill="#A6DDDB"/>
<path d="M29.011 26.2069C30.3931 26.2069 26.2497 22.069 26.9421 18.44C29.5959 18.2358 35.6621 19.4317 32.131 14.5821C36.1255 15.2855 38.1945 12.3034 34.4235 9.47723C35.6786 9.56551 37.629 7.19861 36.229 6.8993C31.7435 5.94895 29.9876 8.37516 32.8345 11.8745C29.8414 11.3172 27.4014 12.709 29.6497 15.8345C21.0069 14.7572 25.9241 26.2069 29.011 26.2069Z" fill="#A6DDDB"/>
<path d="M58.6828 22.5296C59.9779 21.9448 57.7807 18.0814 57.0662 17.0938C62.5324 16.509 62.3255 14.88 58.8979 11.3903C68.2166 11.7034 59.1862 6.40688 60.4524 4.31033C61.549 2.4924 64.9131 4.39861 64.6014 3.38619C63.5503 -1.43051e-05 53.5807 2.28964 59.8897 8.6124C54.3834 8.71999 53.8552 10.52 57.9586 14.251C50.811 14.3296 56.6428 23.4483 58.6828 22.5296Z" fill="#A6DDDB"/>
<path d="M82.3407 36.1724C80.1586 36.7835 79.8221 36.5545 80.1131 38.7269C75.0731 36.4069 69.7407 33.1807 72.9766 41.7283C67.2524 38.32 67.5379 41.3048 66.4676 46.2166C65.0745 45.131 63.0952 42.2703 63.0952 42.2703L60.9986 44.051C60.9986 44.051 64.84 49.469 66.7366 49.1614C68.4041 48.8924 69.3117 45.7407 69.4041 42.9628C74.7145 45.2041 77.2566 45.5035 74.8276 38.949C79.0731 41.3338 84.2786 43.4372 82.3407 36.1724Z" fill="#A6DDDB"/>
<path d="M5.5845 11.6378L9.48574 15.5391L5.5845 19.4403L1.68326 15.5391L5.5845 11.6378Z" fill="#A6DDDB"/>
<path d="M14.9291 27.8588L11.0252 31.7599L7.12409 27.856L11.028 23.9549L14.9291 27.8588Z" fill="#A6DDDB"/>
<path d="M20.9931 5.51674L24.8943 9.41798L20.9921 13.3202L17.0909 9.41896L20.9931 5.51674Z" fill="#A6DDDB"/>
<path d="M63.464 59.9773L59.5601 56.0762L63.4602 52.1733L67.3641 56.0744L63.464 59.9773Z" fill="#A6DDDB"/>
<path d="M54.7661 73.3602L50.8649 69.4589L54.7661 65.5577L58.6674 69.4589L54.7661 73.3602Z" fill="#A6DDDB"/>
<path d="M71.8802 76.4407L67.9764 72.5396L71.8765 68.6367L75.7804 72.5378L71.8802 76.4407Z" fill="#A6DDDB"/>
<path d="M75.7808 58.6699L71.8795 54.7687L75.7808 50.8674L79.682 54.7687L75.7808 58.6699Z" fill="#A6DDDB"/>
<path d="M69.2687 9.65425L73.1699 13.5555L69.2677 17.4577L65.3665 13.5565L69.2687 9.65425Z" fill="#A6DDDB"/>
</svg>
