<svg width="20" height="20" viewBox="0 0 20 20" fill="none" xmlns="http://www.w3.org/2000/svg">
<path d="M7.56533 6.64227L9.62685 3.25575L8.25762 0.988451C8.07686 0.680767 7.8118 0.526926 7.46245 0.526926C7.11308 0.526926 6.84644 0.680975 6.66253 0.989075L4.40957 4.75575L7.56533 6.64227ZM16.4986 12.923L14.448 9.51148L17.6537 7.66535L19.1287 10.1288C19.2928 10.3929 19.3848 10.6871 19.4047 11.0115C19.4246 11.3358 19.3576 11.6352 19.2037 11.9095C19.0499 12.2236 18.8217 12.4711 18.5191 12.6519C18.2166 12.8326 17.8886 12.923 17.5354 12.923H16.4986ZM13.846 19.3845L10.1538 15.6922L13.846 11.9999V13.8461H18.2306L16.8922 16.523C16.723 16.8307 16.4922 17.0768 16.1999 17.2614C15.9076 17.446 15.5845 17.5384 15.2307 17.5384H13.846V19.3845ZM4.91195 17.5384C4.60397 17.5384 4.32369 17.4589 4.07113 17.2999C3.81856 17.1409 3.63202 16.9297 3.5115 16.6662C3.391 16.4181 3.33331 16.1595 3.33843 15.8903C3.34356 15.6211 3.41536 15.3709 3.55383 15.1399L4.33843 13.8461H8.30762V17.5384H4.91195ZM2.62882 14.9095L1.12883 11.9095C0.985242 11.6288 0.919217 11.3304 0.93075 11.0143C0.942283 10.6983 1.03188 10.4031 1.19955 10.1288L1.56538 9.51148L0 8.5634L5.05188 7.2942L6.3211 12.3711L4.73073 11.398L2.62882 14.9095ZM15.0903 7.01342L10.0365 5.74455L11.6288 4.79865L8.74417 0H11.998C12.3211 0 12.6249 0.0805999 12.9095 0.2418C13.1941 0.402983 13.4211 0.621741 13.5903 0.898074L14.7941 2.9096L16.3595 1.93652L15.0903 7.01342Z" fill="#1E4E40"/>
</svg>
