<svg width="30" height="30" viewBox="0 0 30 30" fill="none" xmlns="http://www.w3.org/2000/svg">
<path d="M11.6941 10.2673L14.8807 5.03257L12.7642 1.52789C12.4848 1.05229 12.0751 0.814494 11.5351 0.814494C10.995 0.814494 10.5829 1.05261 10.2986 1.52886L6.81609 7.35119L11.6941 10.2673ZM25.5026 19.9757L22.3329 14.7023L27.2882 11.8487L29.5682 15.6565C29.8218 16.0648 29.964 16.5196 29.9947 17.021C30.0255 17.5223 29.9219 17.9851 29.6841 18.4092C29.4463 18.8947 29.0935 19.2771 28.6258 19.5566C28.1582 19.836 27.6513 19.9757 27.1052 19.9757H25.5026ZM21.4025 29.9635L15.6952 24.2562L21.4025 18.5489V21.4025H28.18L26.1111 25.5403C25.8495 26.016 25.4928 26.3965 25.041 26.6818C24.5891 26.9672 24.0897 27.1099 23.5428 27.1099H21.4025V29.9635ZM7.59263 27.1099C7.11657 27.1099 6.68333 26.987 6.29293 26.7413C5.90253 26.4955 5.61418 26.169 5.42789 25.7617C5.24163 25.3783 5.15245 24.9785 5.16036 24.5624C5.1683 24.1462 5.27928 23.7596 5.49332 23.4025L6.70611 21.4025H12.8415V27.1099H7.59263ZM4.0635 23.0464L1.74488 18.4092C1.52293 17.9752 1.42088 17.5139 1.4387 17.0254C1.45653 16.5369 1.59503 16.0806 1.8542 15.6565L2.41967 14.7023L0 13.2369L7.80892 11.275L9.77082 19.1226L7.31251 17.6184L4.0635 23.0464ZM23.3258 10.841L15.5139 8.87962L17.9751 7.4175L13.5163 0H18.5459C19.0453 0 19.5149 0.124587 19.9549 0.373762C20.3948 0.62291 20.7456 0.961054 21.0072 1.3882L22.868 4.49751L25.2877 2.99338L23.3258 10.841Z" fill="#FFFEFD"/>
</svg>
