<svg width="12" height="13" viewBox="0 0 12 13" fill="none" xmlns="http://www.w3.org/2000/svg">
<path d="M4.67763 4.61417L5.95227 2.52029L5.10568 1.11842C4.99391 0.928181 4.83003 0.833061 4.61402 0.833061C4.39801 0.833061 4.23315 0.928309 4.11943 1.11881L2.72644 3.44774L4.67763 4.61417ZM10.201 8.49754L8.93317 6.3882L10.9153 5.24674L11.8273 6.76987C11.9287 6.93317 11.9856 7.11509 11.9979 7.31565C12.0102 7.51619 11.9688 7.70128 11.8736 7.87092C11.7785 8.06513 11.6374 8.21812 11.4503 8.32989C11.2633 8.44166 11.0605 8.49754 10.8421 8.49754H10.201ZM8.561 12.4927L6.27807 10.2097L8.561 7.9268V9.06828H11.272L10.4444 10.7234C10.3398 10.9137 10.1971 11.0658 10.0164 11.18C9.83564 11.2941 9.63588 11.3512 9.41711 11.3512H8.561V12.4927ZM3.03705 11.3512C2.84663 11.3512 2.67333 11.3021 2.51717 11.2038C2.36101 11.1055 2.24567 10.9749 2.17116 10.8119C2.09665 10.6586 2.06098 10.4987 2.06414 10.3322C2.06732 10.1658 2.11171 10.0111 2.19733 9.86825L2.68244 9.06828H5.1366V11.3512H3.03705ZM1.6254 9.72581L0.697951 7.87092C0.609174 7.69733 0.568351 7.51283 0.575482 7.31742C0.582613 7.12203 0.638012 6.93951 0.74168 6.76987L0.96787 6.3882L0 5.802L3.12357 5.01726L3.90833 8.15629L2.925 7.55463L1.6254 9.72581ZM9.3303 4.84366L6.20554 4.05911L7.19006 3.47426L5.40651 0.507263H7.41835C7.6181 0.507263 7.80597 0.557098 7.98195 0.656768C8.15792 0.756427 8.29823 0.891685 8.40287 1.06254L9.14719 2.30627L10.1151 1.70461L9.3303 4.84366Z" fill="#FFFEFD"/>
</svg>
