<svg width="100" height="100" viewBox="0 0 100 100" fill="none" xmlns="http://www.w3.org/2000/svg">
<g clip-path="url(#clip0_25_2474)">
<path d="M38.2297 87.3394C29.8075 84.0428 22.913 78.6223 17.546 71.078C12.179 63.5336 9.49551 54.9419 9.49551 45.3027C9.49551 43.0213 9.64842 40.7721 9.95422 38.5549C10.2601 36.3378 10.7586 34.1681 11.4497 32.0457L3.53207 36.6421L0 30.4771L20.6697 18.5506L32.5962 39.1468L26.3579 42.7706L19.5505 30.9632C18.5841 33.2018 17.867 35.5275 17.3991 37.9403C16.9311 40.3532 16.6972 42.8226 16.6972 45.3485C16.6972 53.4893 19.026 60.8043 23.6836 67.2937C28.3411 73.783 34.3977 78.3701 41.8535 81.0551L38.2297 87.3394ZM70.7798 28.5319V21.376H84.3763C80.7494 16.8439 76.3518 13.3408 71.1836 10.8668C66.0154 8.39286 60.5444 7.15587 54.7707 7.15587C50.0612 7.15587 45.6361 7.94636 41.4954 9.52736C37.3547 11.1084 33.6238 13.3149 30.3026 16.1468L26.6788 9.81658C30.5626 6.75851 34.873 4.35788 39.6101 2.61468C44.3471 0.871563 49.3853 0 54.7248 0C60.9756 0 66.9176 1.21104 72.5506 3.6331C78.1836 6.05508 83.1591 9.55356 87.4771 14.1285V4.6787H94.633V28.5319H70.7798ZM69.5599 99.8624L48.8902 87.8899L60.8168 67.3395L66.9818 70.9175L59.8624 83.1102C69.2753 81.8197 77.1255 77.5964 83.413 70.4404C89.7005 63.2844 92.8443 54.896 92.8443 45.2752C92.8443 44.003 92.7785 42.7752 92.647 41.5917C92.5155 40.4081 92.2938 39.2353 91.9818 38.0732H99.3028C99.5352 39.2353 99.7095 40.4005 99.8258 41.5686C99.9419 42.7369 100 43.9571 100 45.2293C100 55.7798 96.7691 65.136 90.3073 73.2982C83.8456 81.4603 75.5321 86.7523 65.3669 89.1743L73.1377 93.6974L69.5599 99.8624Z" fill="#77DD77"/>
</g>
<defs>
<clipPath id="clip0_25_2474">
<rect width="100" height="100" fill="white"/>
</clipPath>
</defs>
</svg>
