<svg width="20" height="18" viewBox="0 0 20 18" fill="none" xmlns="http://www.w3.org/2000/svg">
<path d="M18.5531 7.71363L18.5489 7.70873V7.72305V15.6923C18.5489 16.1942 18.3751 16.6185 18.0275 16.9661C17.6799 17.3137 17.2555 17.4875 16.7537 17.4875H2.86905C2.36718 17.4875 1.94282 17.3137 1.59522 16.9661C1.24761 16.6185 1.07388 16.1942 1.07388 15.6923V7.70383H1.08107L1.06931 7.69417C0.668562 7.36488 0.367528 6.93756 0.166302 6.41186C-0.0344682 5.88729 -0.0388065 5.32067 0.154046 4.71145L0.154081 4.71133L1.16559 1.4076C1.1656 1.40758 1.16561 1.40756 1.16561 1.40755C1.29826 0.989226 1.52322 0.652281 1.84038 0.396251C2.1572 0.140513 2.53578 0.0125 2.97675 0.0125H16.6267C17.0679 0.0125 17.4439 0.134832 17.7556 0.379065C18.0675 0.623479 18.295 0.959722 18.4379 1.38844C18.4379 1.38848 18.4379 1.38851 18.4379 1.38855L19.4686 4.71138L19.4687 4.71145C19.6615 5.32068 19.6572 5.88536 19.4564 6.40605C19.2552 6.92797 18.9541 7.36375 18.5531 7.71363ZM13.593 5.42146L13.593 5.42116L12.9853 1.49804L12.9836 1.48745H12.9729H10.5614H10.5489V1.49995V5.44998C10.5489 5.87363 10.6923 6.24014 10.9791 6.54888C11.266 6.8577 11.6102 7.0125 12.0114 7.0125C12.5602 7.0125 12.9748 6.84457 13.2528 6.50697C13.5297 6.17069 13.6435 5.80865 13.593 5.42146ZM9.07388 1.49995V1.48745H9.06138H6.64981H6.63908L6.63745 1.49806L6.02975 5.45963L6.02975 5.45965C5.97527 5.81903 6.08843 6.1677 6.36709 6.50506C6.64666 6.84352 7.02858 7.0125 7.51135 7.0125C7.97471 7.0125 8.35155 6.85812 8.64071 6.54891C8.92941 6.24018 9.07388 5.87365 9.07388 5.44998V1.49995ZM4.52372 5.64043L4.52375 5.64021L5.11223 1.50171L5.11426 1.48745H5.09985H2.97675C2.86603 1.48745 2.77655 1.51187 2.70963 1.56208C2.643 1.61204 2.59366 1.68656 2.56102 1.7845L2.56101 1.7845L2.56089 1.78491L1.59941 5.0386C1.5994 5.03862 1.59939 5.03865 1.59939 5.03867C1.46618 5.47194 1.52917 5.90919 1.78709 6.34957C2.04614 6.79189 2.47183 7.0125 3.06135 7.0125C3.43512 7.0125 3.75684 6.88207 4.02585 6.62148C4.29459 6.36112 4.46051 6.03393 4.52372 5.64043ZM17.0118 1.76551L17.0117 1.76525C16.979 1.66729 16.9296 1.59563 16.8624 1.55197C16.7956 1.50854 16.7064 1.48745 16.596 1.48745H14.5229H14.5085L14.5105 1.50171L15.099 5.64021L15.099 5.64043C15.1622 6.03393 15.3281 6.36112 15.5969 6.62148C15.8659 6.88207 16.1876 7.0125 16.5614 7.0125C17.1063 7.0125 17.5244 6.79816 17.814 6.3695C18.1032 5.94158 18.1733 5.49755 18.0233 5.0385C18.0233 5.03846 18.0233 5.03843 18.0233 5.03839L17.0118 1.76551ZM17.0739 8.4115V8.39364L17.0571 8.39976C16.9486 8.43933 16.8585 8.46368 16.7867 8.47313C16.7142 8.48267 16.6391 8.48745 16.5614 8.48745C16.1129 8.48745 15.7189 8.40632 15.3792 8.24444C15.0394 8.08251 14.7096 7.82277 14.3899 7.4647L14.3806 7.45428L14.3713 7.46468C14.0916 7.77627 13.7609 8.02465 13.379 8.20985C12.9976 8.39481 12.5623 8.48745 12.0729 8.48745C11.6503 8.48745 11.2521 8.3997 10.8782 8.22421C10.5041 8.04862 10.1514 7.79535 9.82019 7.46419L9.81103 7.45502L9.8022 7.46451C9.4943 7.79541 9.14565 8.04857 8.75622 8.22413C8.3667 8.39974 7.9723 8.48745 7.5729 8.48745C7.12317 8.48745 6.70173 8.40601 6.30846 8.24323C5.9156 8.0806 5.56976 7.8213 5.27093 7.46499L5.26216 7.45454L5.25251 7.46419C4.83262 7.88408 4.44661 8.15899 4.09449 8.29016C3.74123 8.42175 3.39688 8.48745 3.06135 8.48745C2.98367 8.48745 2.90338 8.48267 2.82049 8.47311C2.73859 8.46366 2.65393 8.43939 2.56648 8.4001L2.54885 8.39218V8.4115V15.6923C2.54885 15.785 2.57877 15.862 2.63904 15.9223C2.69933 15.9826 2.77635 16.0125 2.86905 16.0125H16.7537C16.8464 16.0125 16.9234 15.9826 16.9837 15.9223C17.044 15.862 17.0739 15.785 17.0739 15.6923V8.4115Z" fill="#1E4E40" stroke="#253D3E" stroke-width="0.025"/>
</svg>
