<svg width="30" height="27" viewBox="0 0 30 27" fill="none" xmlns="http://www.w3.org/2000/svg">
<path d="M28.3774 11.8073V23.991C28.3774 24.7633 28.1098 25.4169 27.5747 25.952C27.0396 26.4871 26.3859 26.7546 25.6137 26.7546H4.38633C3.61408 26.7546 2.96041 26.4871 2.42532 25.952C1.89023 25.4169 1.62268 24.7633 1.62268 23.991V11.7779C1.00722 11.2722 0.545126 10.6161 0.236402 9.80954C-0.0722963 9.00298 -0.0786665 8.13223 0.217292 7.19729L1.76379 2.14623C1.96764 1.50335 2.31359 0.984918 2.80164 0.590935C3.2897 0.196978 3.87281 0 4.55098 0H25.4196C26.0978 0 26.677 0.188164 27.1572 0.564488C27.6374 0.940812 27.9873 1.45826 28.2068 2.11683L29.7827 7.19729C30.0787 8.13223 30.0723 9.00003 29.7636 9.80071C29.4549 10.6014 28.9928 11.2703 28.3774 11.8073ZM18.3635 10.7019C19.1985 10.7019 19.8262 10.4466 20.2466 9.93598C20.667 9.4254 20.839 8.87708 20.7626 8.29102L19.8335 2.29319H16.1466V8.33215C16.1466 8.97505 16.3642 9.53073 16.7993 9.9992C17.2345 10.4677 17.7558 10.7019 18.3635 10.7019ZM11.4837 10.7019C12.1873 10.7019 12.7582 10.4677 13.1963 9.9992C13.6344 9.53073 13.8534 8.97505 13.8534 8.33215V2.29319H10.1665L9.23742 8.3498C9.15511 8.89275 9.32564 9.42049 9.749 9.93303C10.1724 10.4456 10.7506 10.7019 11.4837 10.7019ZM4.68032 10.7019C5.24678 10.7019 5.73387 10.5044 6.14159 10.1095C6.54928 9.71449 6.80114 9.2181 6.89718 8.6203L7.79686 2.29319H4.55098C4.38436 2.29319 4.25206 2.32994 4.15406 2.40345C4.05603 2.47696 3.98252 2.58723 3.93352 2.73426L2.4635 7.70884C2.26159 8.36548 2.35665 9.02847 2.74867 9.69782C3.14069 10.3672 3.78457 10.7019 4.68032 10.7019ZM25.3197 10.7019C26.1468 10.7019 26.7799 10.377 27.219 9.72725C27.6581 9.07747 27.7639 8.40466 27.5365 7.70884L25.9901 2.70483C25.941 2.55783 25.8675 2.45247 25.7695 2.38874C25.6715 2.32504 25.5392 2.29319 25.3726 2.29319H22.2032L23.1029 8.6203C23.1989 9.2181 23.4508 9.71449 23.8584 10.1095C24.2661 10.5044 24.7532 10.7019 25.3197 10.7019ZM4.38633 24.4615H25.6137C25.7509 24.4615 25.8636 24.4174 25.9518 24.3291C26.04 24.2409 26.0841 24.1282 26.0841 23.991V12.8598C25.9175 12.9206 25.7784 12.9583 25.6666 12.973C25.5549 12.9877 25.4393 12.9951 25.3197 12.9951C24.6317 12.9951 24.0265 12.8706 23.5042 12.6217C22.9818 12.3728 22.4757 11.9739 21.9857 11.4251C21.5564 11.9033 21.0488 12.2845 20.4627 12.5688C19.8766 12.853 19.2083 12.9951 18.4576 12.9951C17.8088 12.9951 17.1972 12.8603 16.6229 12.5908C16.0487 12.3213 15.5077 11.9327 15 11.4251C14.5276 11.9327 13.9925 12.3213 13.3947 12.5908C12.7969 12.8603 12.1913 12.9951 11.5778 12.9951C10.8878 12.9951 10.241 12.8701 9.63732 12.6202C9.03361 12.3703 8.50243 11.9719 8.04377 11.4251C7.40087 12.068 6.80844 12.4904 6.2665 12.6922C5.72455 12.8941 5.19582 12.9951 4.68032 12.9951C4.56077 12.9951 4.43729 12.9877 4.30989 12.973C4.18246 12.9583 4.05113 12.9206 3.9159 12.8598V23.991C3.9159 24.1282 3.96 24.2409 4.04819 24.3291C4.1364 24.4174 4.24911 24.4615 4.38633 24.4615Z" fill="#FFFEFD"/>
</svg>
