<svg width="12" height="11" viewBox="0 0 12 11" fill="none" xmlns="http://www.w3.org/2000/svg">
<path d="M11.3509 4.87197V9.74545C11.3509 10.0544 11.2439 10.3158 11.0299 10.5298C10.8158 10.7439 10.5544 10.8509 10.2455 10.8509H1.75453C1.44563 10.8509 1.18417 10.7439 0.970128 10.5298C0.75609 10.3158 0.649072 10.0544 0.649072 9.74545V4.86022C0.402887 4.65793 0.21805 4.39548 0.0945609 4.07286C-0.0289185 3.75024 -0.0314666 3.40194 0.0869167 3.02796L0.705516 1.00754C0.787055 0.750387 0.925435 0.543015 1.12066 0.385422C1.31588 0.227839 1.54913 0.149048 1.82039 0.149048H10.1678C10.4391 0.149048 10.6708 0.224313 10.8629 0.374843C11.055 0.525373 11.1949 0.732352 11.2827 0.995782L11.9131 3.02796C12.0315 3.40194 12.0289 3.74906 11.9054 4.06933C11.782 4.3896 11.5971 4.65715 11.3509 4.87197ZM7.34538 4.4298C7.67938 4.4298 7.93047 4.32768 8.09864 4.12344C8.26681 3.91921 8.33561 3.69988 8.30503 3.46546L7.93342 1.06632H6.45865V3.48191C6.45865 3.73907 6.54568 3.96134 6.71973 4.14873C6.89379 4.33611 7.10233 4.4298 7.34538 4.4298ZM4.59347 4.4298C4.87494 4.4298 5.10329 4.33611 5.27852 4.14873C5.45375 3.96134 5.54136 3.73907 5.54136 3.48191V1.06632H4.0666L3.69497 3.48897C3.66205 3.70615 3.73026 3.91724 3.8996 4.12226C4.06896 4.32729 4.30024 4.4298 4.59347 4.4298ZM1.87213 4.4298C2.09871 4.4298 2.29355 4.35081 2.45664 4.19283C2.61971 4.03484 2.72046 3.83629 2.75887 3.59717L3.11875 1.06632H1.82039C1.75375 1.06632 1.70082 1.08102 1.66162 1.11043C1.62241 1.13983 1.59301 1.18394 1.57341 1.24275L0.985401 3.23258C0.904638 3.49524 0.94266 3.76044 1.09947 4.02818C1.25628 4.29593 1.51383 4.4298 1.87213 4.4298ZM10.1279 4.4298C10.4587 4.4298 10.712 4.29985 10.8876 4.03995C11.0632 3.78004 11.1056 3.51091 11.0146 3.23258L10.396 1.23098C10.3764 1.17218 10.347 1.13003 10.3078 1.10454C10.2686 1.07906 10.2157 1.06632 10.149 1.06632H8.88127L9.24114 3.59717C9.27956 3.83629 9.3803 4.03484 9.54338 4.19283C9.70646 4.35081 9.90129 4.4298 10.1279 4.4298ZM1.75453 9.93363H10.2455C10.3004 9.93363 10.3455 9.91599 10.3807 9.8807C10.416 9.84542 10.4337 9.80033 10.4337 9.74545V5.29299C10.367 5.31729 10.3114 5.33238 10.2667 5.33826C10.222 5.34414 10.1757 5.34708 10.1279 5.34708C9.85268 5.34708 9.61061 5.29729 9.40167 5.19772C9.19273 5.09816 8.99026 4.93861 8.79426 4.71908C8.62256 4.91037 8.4195 5.06287 8.18508 5.17655C7.95066 5.29024 7.68331 5.34708 7.38302 5.34708C7.12351 5.34708 6.87889 5.29318 6.64918 5.18537C6.41946 5.07757 6.20307 4.92214 6 4.71908C5.81106 4.92214 5.59702 5.07757 5.35789 5.18537C5.11877 5.29318 4.87651 5.34708 4.63111 5.34708C4.35513 5.34708 4.0964 5.2971 3.85493 5.19714C3.61344 5.09718 3.40097 4.93782 3.21751 4.71908C2.96035 4.97624 2.72338 5.14519 2.5066 5.22595C2.28982 5.3067 2.07833 5.34708 1.87213 5.34708C1.82431 5.34708 1.77492 5.34414 1.72395 5.33826C1.67298 5.33238 1.62045 5.31729 1.56636 5.29299V9.74545C1.56636 9.80033 1.584 9.84542 1.61927 9.8807C1.65456 9.91599 1.69965 9.93363 1.75453 9.93363Z" fill="#FFFEFD"/>
</svg>
