<svg width="19" height="19" viewBox="0 0 19 19" fill="none" xmlns="http://www.w3.org/2000/svg">
<path d="M9.5 8.8666C8.28085 8.8666 7.23718 8.43251 6.36898 7.56434C5.50078 6.69614 5.06668 5.65247 5.06668 4.43332C5.06668 3.21415 5.50078 2.17047 6.36898 1.3023C7.23718 0.434099 8.28085 0 9.5 0C10.7191 0 11.7628 0.434099 12.631 1.3023C13.4992 2.17047 13.9333 3.21415 13.9333 4.43332C13.9333 5.65247 13.4992 6.69614 12.631 7.56434C11.7628 8.43251 10.7191 8.8666 9.5 8.8666ZM0 18.5128V15.6969C0 15.0766 0.168488 14.5021 0.505465 13.9735C0.84242 13.445 1.29265 13.0386 1.85615 12.7544C3.10821 12.1405 4.37123 11.6801 5.6452 11.3732C6.91918 11.0663 8.20411 10.9128 9.5 10.9128C10.7959 10.9128 12.0808 11.0663 13.3548 11.3732C14.6288 11.6801 15.8918 12.1405 17.1439 12.7544C17.7073 13.0386 18.1576 13.445 18.4945 13.9735C18.8315 14.5021 19 15.0766 19 15.6969V18.5128H0ZM1.89997 16.6128H17.1V15.6969C17.1 15.4403 17.0257 15.2028 16.8771 14.9844C16.7285 14.766 16.5268 14.5878 16.2718 14.4497C15.1805 13.9122 14.0678 13.505 12.9336 13.2281C11.7993 12.9512 10.6548 12.8128 9.5 12.8128C8.34518 12.8128 7.20065 12.9512 6.06643 13.2281C4.93222 13.505 3.81947 13.9122 2.72819 14.4497C2.47323 14.5878 2.27146 14.766 2.12288 14.9844C1.97428 15.2028 1.89997 15.4403 1.89997 15.6969V16.6128ZM9.5 6.96666C10.1967 6.96666 10.7931 6.7186 11.2892 6.22249C11.7853 5.72638 12.0333 5.12999 12.0333 4.43332C12.0333 3.73665 11.7853 3.14026 11.2892 2.64414C10.7931 2.14803 10.1967 1.89998 9.5 1.89998C8.80333 1.89998 8.20694 2.14803 7.71083 2.64414C7.21471 3.14026 6.96666 3.73665 6.96666 4.43332C6.96666 5.12999 7.21471 5.72638 7.71083 6.22249C8.20694 6.7186 8.80333 6.96666 9.5 6.96666Z" fill="#253D3E"/>
</svg>
