<svg width="20" height="22" viewBox="0 0 20 22" fill="none" xmlns="http://www.w3.org/2000/svg">
<path d="M15.0581 21.1405V17.8458H11.7635V16.1986H15.0581V12.9039H16.7054V16.1986H20V17.8458H16.7054V21.1404L15.0581 21.1405ZM1.98523 18.6695C1.43049 18.6695 0.960931 18.4773 0.576559 18.0929C0.192186 17.7085 0 17.239 0 16.6842V1.98523C0 1.43049 0.192186 0.960931 0.576559 0.576559C0.960931 0.192186 1.43049 0 1.98523 0H16.6842C17.239 0 17.7085 0.192186 18.0929 0.576559C18.4773 0.960931 18.6695 1.43049 18.6695 1.98523V11.4023C18.4174 11.2644 18.1559 11.1489 17.8849 11.056C17.6139 10.9631 17.3263 10.887 17.0222 10.8279V1.98523C17.0222 1.90074 16.987 1.82329 16.9166 1.75288C16.8462 1.68248 16.7687 1.64728 16.6842 1.64728H1.98523C1.90074 1.64728 1.82329 1.68248 1.75288 1.75288C1.68248 1.82329 1.64728 1.90074 1.64728 1.98523V16.6842C1.64728 16.7687 1.68248 16.8462 1.75288 16.9166C1.82329 16.987 1.90074 17.0222 1.98523 17.0222H9.56706C9.56706 17.308 9.58558 17.5886 9.62263 17.864C9.65966 18.1394 9.72139 18.4079 9.80781 18.6695H1.98523ZM5.00601 14.5723C5.28148 14.5723 5.51213 14.4792 5.69797 14.2928C5.88382 14.1065 5.97675 13.8756 5.97675 13.6001C5.97675 13.3246 5.88357 13.094 5.69722 12.9081C5.51089 12.7223 5.28 12.6294 5.00453 12.6294C4.72906 12.6294 4.4984 12.7225 4.31255 12.9089C4.12671 13.0952 4.0338 13.3261 4.0338 13.6016C4.0338 13.877 4.12696 14.1077 4.31329 14.2936C4.49964 14.4794 4.73055 14.5723 5.00601 14.5723ZM5.00601 10.3062C5.28148 10.3062 5.51213 10.213 5.69797 10.0267C5.88382 9.84037 5.97675 9.60946 5.97675 9.33399C5.97675 9.05853 5.88357 8.82787 5.69722 8.64201C5.51089 8.45618 5.28 8.36326 5.00453 8.36326C4.72906 8.36326 4.4984 8.45642 4.31255 8.64275C4.12671 8.8291 4.0338 9.06001 4.0338 9.33548C4.0338 9.61094 4.12696 9.8416 4.31329 10.0275C4.49964 10.2133 4.73055 10.3062 5.00601 10.3062ZM5.00601 6.04011C5.28148 6.04011 5.51213 5.94694 5.69797 5.76059C5.88382 5.57426 5.97675 5.34336 5.97675 5.0679C5.97675 4.79243 5.88357 4.56177 5.69722 4.37592C5.51089 4.19006 5.28 4.09714 5.00453 4.09714C4.72906 4.09714 4.4984 4.19031 4.31255 4.37666C4.12671 4.56301 4.0338 4.79391 4.0338 5.06938C4.0338 5.34485 4.12696 5.5755 4.31329 5.76133C4.49964 5.94719 4.73055 6.04011 5.00601 6.04011ZM8.34212 10.1584H14.5934V8.51111H8.34212V10.1584ZM8.34212 5.89227H14.5934V4.24498H8.34212V5.89227ZM8.34212 14.4245H10.1838C10.3091 14.1091 10.4587 13.8159 10.6325 13.5449C10.8064 13.2739 11.0046 13.018 11.2271 12.7772H8.34212V14.4245Z" fill="#253D3E"/>
</svg>
